<svg width="382" height="56" viewBox="0 0 382 56" fill="none" xmlns="http://www.w3.org/2000/svg">
<path d="M28.912 4.816V10.144H7.096V27.064H24.808V32.392H7.096V55H0.544001V4.816H28.912ZM43.3773 21.952C44.5293 19.696 46.1613 17.944 48.2733 16.696C50.4333 15.448 53.0493 14.824 56.1213 14.824V21.592H54.3933C47.0493 21.592 43.3773 25.576 43.3773 33.544V55H36.8253V15.544H43.3773V21.952ZM99.6846 33.76C99.6846 35.008 99.6126 36.328 99.4686 37.72H67.9326C68.1726 41.608 69.4926 44.656 71.8926 46.864C74.3406 49.024 77.2926 50.104 80.7486 50.104C83.5806 50.104 85.9326 49.456 87.8046 48.16C89.7246 46.816 91.0686 45.04 91.8366 42.832H98.8926C97.8366 46.624 95.7246 49.72 92.5566 52.12C89.3886 54.472 85.4526 55.648 80.7486 55.648C77.0046 55.648 73.6446 54.808 70.6686 53.128C67.7406 51.448 65.4366 49.072 63.7566 46C62.0766 42.88 61.2366 39.28 61.2366 35.2C61.2366 31.12 62.0526 27.544 63.6846 24.472C65.3166 21.4 67.5966 19.048 70.5246 17.416C73.5006 15.736 76.9086 14.896 80.7486 14.896C84.4926 14.896 87.8046 15.712 90.6846 17.344C93.5646 18.976 95.7726 21.232 97.3086 24.112C98.8926 26.944 99.6846 30.16 99.6846 33.76ZM92.9166 32.392C92.9166 29.896 92.3646 27.76 91.2606 25.984C90.1566 24.16 88.6446 22.792 86.7246 21.88C84.8526 20.92 82.7646 20.44 80.4606 20.44C77.1486 20.44 74.3166 21.496 71.9646 23.608C69.6606 25.72 68.3406 28.648 68.0046 32.392H92.9166ZM144.333 33.76C144.333 35.008 144.261 36.328 144.117 37.72H112.581C112.821 41.608 114.141 44.656 116.541 46.864C118.989 49.024 121.941 50.104 125.397 50.104C128.229 50.104 130.581 49.456 132.453 48.16C134.373 46.816 135.717 45.04 136.485 42.832H143.541C142.485 46.624 140.373 49.72 137.205 52.12C134.037 54.472 130.101 55.648 125.397 55.648C121.653 55.648 118.293 54.808 115.317 53.128C112.389 51.448 110.085 49.072 108.405 46C106.725 42.88 105.885 39.28 105.885 35.2C105.885 31.12 106.701 27.544 108.333 24.472C109.965 21.4 112.245 19.048 115.173 17.416C118.149 15.736 121.557 14.896 125.397 14.896C129.141 14.896 132.453 15.712 135.333 17.344C138.213 18.976 140.421 21.232 141.957 24.112C143.541 26.944 144.333 30.16 144.333 33.76ZM137.565 32.392C137.565 29.896 137.013 27.76 135.909 25.984C134.805 24.16 133.293 22.792 131.373 21.88C129.501 20.92 127.413 20.44 125.109 20.44C121.797 20.44 118.965 21.496 116.613 23.608C114.309 25.72 112.989 28.648 112.653 32.392H137.565ZM189.385 55.648C185.689 55.648 182.329 54.808 179.305 53.128C176.329 51.448 173.977 49.072 172.249 46C170.569 42.88 169.729 39.28 169.729 35.2C169.729 31.168 170.593 27.616 172.321 24.544C174.097 21.424 176.497 19.048 179.521 17.416C182.545 15.736 185.929 14.896 189.673 14.896C193.417 14.896 196.801 15.736 199.825 17.416C202.849 19.048 205.225 21.4 206.953 24.472C208.729 27.544 209.617 31.12 209.617 35.2C209.617 39.28 208.705 42.88 206.881 46C205.105 49.072 202.681 51.448 199.609 53.128C196.537 54.808 193.129 55.648 189.385 55.648ZM189.385 49.888C191.737 49.888 193.945 49.336 196.009 48.232C198.073 47.128 199.729 45.472 200.977 43.264C202.273 41.056 202.921 38.368 202.921 35.2C202.921 32.032 202.297 29.344 201.049 27.136C199.801 24.928 198.169 23.296 196.153 22.24C194.137 21.136 191.953 20.584 189.601 20.584C187.201 20.584 184.993 21.136 182.977 22.24C181.009 23.296 179.425 24.928 178.225 27.136C177.025 29.344 176.425 32.032 176.425 35.2C176.425 38.416 177.001 41.128 178.153 43.336C179.353 45.544 180.937 47.2 182.905 48.304C184.873 49.36 187.033 49.888 189.385 49.888ZM237.456 14.824C242.256 14.824 246.144 16.288 249.12 19.216C252.096 22.096 253.584 26.272 253.584 31.744V55H247.104V32.68C247.104 28.744 246.12 25.744 244.152 23.68C242.184 21.568 239.496 20.512 236.088 20.512C232.632 20.512 229.872 21.592 227.808 23.752C225.792 25.912 224.784 29.056 224.784 33.184V55H218.232V15.544H224.784V21.16C226.08 19.144 227.832 17.584 230.04 16.48C232.296 15.376 234.768 14.824 237.456 14.824ZM270.838 1.72V55H264.286V1.72H270.838ZM285.389 9.136C284.141 9.136 283.085 8.704 282.221 7.84C281.357 6.976 280.925 5.92 280.925 4.672C280.925 3.424 281.357 2.368 282.221 1.504C283.085 0.639997 284.141 0.207997 285.389 0.207997C286.589 0.207997 287.597 0.639997 288.413 1.504C289.277 2.368 289.709 3.424 289.709 4.672C289.709 5.92 289.277 6.976 288.413 7.84C287.597 8.704 286.589 9.136 285.389 9.136ZM288.557 15.544V55H282.005V15.544H288.557ZM318.948 14.824C323.748 14.824 327.636 16.288 330.612 19.216C333.588 22.096 335.076 26.272 335.076 31.744V55H328.596V32.68C328.596 28.744 327.612 25.744 325.644 23.68C323.676 21.568 320.988 20.512 317.58 20.512C314.124 20.512 311.364 21.592 309.3 23.752C307.284 25.912 306.276 29.056 306.276 33.184V55H299.724V15.544H306.276V21.16C307.572 19.144 309.324 17.584 311.532 16.48C313.788 15.376 316.26 14.824 318.948 14.824ZM381.778 33.76C381.778 35.008 381.706 36.328 381.562 37.72H350.026C350.266 41.608 351.586 44.656 353.986 46.864C356.434 49.024 359.386 50.104 362.842 50.104C365.674 50.104 368.026 49.456 369.898 48.16C371.818 46.816 373.162 45.04 373.93 42.832H380.986C379.93 46.624 377.818 49.72 374.65 52.12C371.482 54.472 367.546 55.648 362.842 55.648C359.098 55.648 355.738 54.808 352.762 53.128C349.834 51.448 347.53 49.072 345.85 46C344.17 42.88 343.33 39.28 343.33 35.2C343.33 31.12 344.146 27.544 345.778 24.472C347.41 21.4 349.69 19.048 352.618 17.416C355.594 15.736 359.002 14.896 362.842 14.896C366.586 14.896 369.898 15.712 372.778 17.344C375.658 18.976 377.866 21.232 379.402 24.112C380.986 26.944 381.778 30.16 381.778 33.76ZM375.01 32.392C375.01 29.896 374.458 27.76 373.354 25.984C372.25 24.16 370.738 22.792 368.818 21.88C366.946 20.92 364.858 20.44 362.554 20.44C359.242 20.44 356.41 21.496 354.058 23.608C351.754 25.72 350.434 28.648 350.098 32.392H375.01Z" fill="black"/>
</svg>
