<svg width="171" height="24" viewBox="0 0 171 24" fill="none" xmlns="http://www.w3.org/2000/svg">
<path d="M5.11719 0.9375L9.5 13.3125L13.8594 0.9375H18.4766V18H14.9492V13.3359L15.3008 5.28516L10.6953 18H8.28125L3.6875 5.29688L4.03906 13.3359V18H0.523438V0.9375H5.11719ZM26.0586 13.207L28.4023 5.32031H32.0352L26.9375 19.9688L26.6562 20.6367C25.8984 22.293 24.6484 23.1211 22.9062 23.1211C22.4141 23.1211 21.9141 23.0469 21.4062 22.8984V20.332L21.9219 20.3438C22.5625 20.3438 23.0391 20.2461 23.3516 20.0508C23.6719 19.8555 23.9219 19.5312 24.1016 19.0781L24.5 18.0352L20.0586 5.32031H23.7031L26.0586 13.207ZM37.4258 2.20312V5.32031H39.5938V7.80469H37.4258V14.1328C37.4258 14.6016 37.5156 14.9375 37.6953 15.1406C37.875 15.3438 38.2188 15.4453 38.7266 15.4453C39.1016 15.4453 39.4336 15.418 39.7227 15.3633V17.9297C39.0586 18.1328 38.375 18.2344 37.6719 18.2344C35.2969 18.2344 34.0859 17.0352 34.0391 14.6367V7.80469H32.1875V5.32031H34.0391V2.20312H37.4258ZM49.0742 16.7109C48.2383 17.7266 47.082 18.2344 45.6055 18.2344C44.2461 18.2344 43.207 17.8438 42.4883 17.0625C41.7773 16.2812 41.4141 15.1367 41.3984 13.6289V5.32031H44.7852V13.5117C44.7852 14.832 45.3867 15.4922 46.5898 15.4922C47.7383 15.4922 48.5273 15.0938 48.957 14.2969V5.32031H52.3555V18H49.168L49.0742 16.7109ZM58.9648 2.20312V5.32031H61.1328V7.80469H58.9648V14.1328C58.9648 14.6016 59.0547 14.9375 59.2344 15.1406C59.4141 15.3438 59.7578 15.4453 60.2656 15.4453C60.6406 15.4453 60.9727 15.418 61.2617 15.3633V17.9297C60.5977 18.1328 59.9141 18.2344 59.2109 18.2344C56.8359 18.2344 55.625 17.0352 55.5781 14.6367V7.80469H53.7266V5.32031H55.5781V2.20312H58.9648ZM62.1406 11.543C62.1406 10.2852 62.3828 9.16406 62.8672 8.17969C63.3516 7.19531 64.0469 6.43359 64.9531 5.89453C65.8672 5.35547 66.9258 5.08594 68.1289 5.08594C69.8398 5.08594 71.2344 5.60938 72.3125 6.65625C73.3984 7.70312 74.0039 9.125 74.1289 10.9219L74.1523 11.7891C74.1523 13.7344 73.6094 15.2969 72.5234 16.4766C71.4375 17.6484 69.9805 18.2344 68.1523 18.2344C66.3242 18.2344 64.8633 17.6484 63.7695 16.4766C62.6836 15.3047 62.1406 13.7109 62.1406 11.6953V11.543ZM65.5273 11.7891C65.5273 12.9922 65.7539 13.9141 66.207 14.5547C66.6602 15.1875 67.3086 15.5039 68.1523 15.5039C68.9727 15.5039 69.6133 15.1914 70.0742 14.5664C70.5352 13.9336 70.7656 12.9258 70.7656 11.543C70.7656 10.3633 70.5352 9.44922 70.0742 8.80078C69.6133 8.15234 68.9648 7.82812 68.1289 7.82812C67.3008 7.82812 66.6602 8.15234 66.207 8.80078C65.7539 9.44141 65.5273 10.4375 65.5273 11.7891ZM83.3633 8.49609C82.9023 8.43359 82.4961 8.40234 82.1445 8.40234C80.8633 8.40234 80.0234 8.83594 79.625 9.70312V18H76.2383V5.32031H79.4375L79.5312 6.83203C80.2109 5.66797 81.1523 5.08594 82.3555 5.08594C82.7305 5.08594 83.082 5.13672 83.4102 5.23828L83.3633 8.49609ZM88.5781 18H85.1797V5.32031H88.5781V18ZM84.9805 2.03906C84.9805 1.53125 85.1484 1.11328 85.4844 0.785156C85.8281 0.457031 86.293 0.292969 86.8789 0.292969C87.457 0.292969 87.918 0.457031 88.2617 0.785156C88.6055 1.11328 88.7773 1.53125 88.7773 2.03906C88.7773 2.55469 88.6016 2.97656 88.25 3.30469C87.9062 3.63281 87.4492 3.79688 86.8789 3.79688C86.3086 3.79688 85.8477 3.63281 85.4961 3.30469C85.1523 2.97656 84.9805 2.55469 84.9805 2.03906ZM98.7266 18C98.5703 17.6953 98.457 17.3164 98.3867 16.8633C97.5664 17.7773 96.5 18.2344 95.1875 18.2344C93.9453 18.2344 92.9141 17.875 92.0938 17.1562C91.2812 16.4375 90.875 15.5312 90.875 14.4375C90.875 13.0938 91.3711 12.0625 92.3633 11.3438C93.3633 10.625 94.8047 10.2617 96.6875 10.2539H98.2461V9.52734C98.2461 8.94141 98.0938 8.47266 97.7891 8.12109C97.4922 7.76953 97.0195 7.59375 96.3711 7.59375C95.8008 7.59375 95.3516 7.73047 95.0234 8.00391C94.7031 8.27734 94.543 8.65234 94.543 9.12891H91.1562C91.1562 8.39453 91.3828 7.71484 91.8359 7.08984C92.2891 6.46484 92.9297 5.97656 93.7578 5.625C94.5859 5.26562 95.5156 5.08594 96.5469 5.08594C98.1094 5.08594 99.3477 5.48047 100.262 6.26953C101.184 7.05078 101.645 8.15234 101.645 9.57422V15.0703C101.652 16.2734 101.82 17.1836 102.148 17.8008V18H98.7266ZM95.9258 15.6445C96.4258 15.6445 96.8867 15.5352 97.3086 15.3164C97.7305 15.0898 98.043 14.7891 98.2461 14.4141V12.2344H96.9805C95.2852 12.2344 94.3828 12.8203 94.2734 13.9922L94.2617 14.1914C94.2617 14.6133 94.4102 14.9609 94.707 15.2344C95.0039 15.5078 95.4102 15.6445 95.9258 15.6445ZM107.82 18H104.422V0H107.82V18ZM121.871 15.5039C122.496 15.5039 123.004 15.332 123.395 14.9883C123.785 14.6445 123.988 14.1875 124.004 13.6172H127.18C127.172 14.4766 126.938 15.2656 126.477 15.9844C126.016 16.6953 125.383 17.25 124.578 17.6484C123.781 18.0391 122.898 18.2344 121.93 18.2344C120.117 18.2344 118.688 17.6602 117.641 16.5117C116.594 15.3555 116.07 13.7617 116.07 11.7305V11.5078C116.07 9.55469 116.59 7.99609 117.629 6.83203C118.668 5.66797 120.094 5.08594 121.906 5.08594C123.492 5.08594 124.762 5.53906 125.715 6.44531C126.676 7.34375 127.164 8.54297 127.18 10.043H124.004C123.988 9.38672 123.785 8.85547 123.395 8.44922C123.004 8.03516 122.488 7.82812 121.848 7.82812C121.059 7.82812 120.461 8.11719 120.055 8.69531C119.656 9.26562 119.457 10.1953 119.457 11.4844V11.8359C119.457 13.1406 119.656 14.0781 120.055 14.6484C120.453 15.2188 121.059 15.5039 121.871 15.5039ZM132.688 18H129.289V0H132.688V18ZM142.836 18C142.68 17.6953 142.566 17.3164 142.496 16.8633C141.676 17.7773 140.609 18.2344 139.297 18.2344C138.055 18.2344 137.023 17.875 136.203 17.1562C135.391 16.4375 134.984 15.5312 134.984 14.4375C134.984 13.0938 135.48 12.0625 136.473 11.3438C137.473 10.625 138.914 10.2617 140.797 10.2539H142.355V9.52734C142.355 8.94141 142.203 8.47266 141.898 8.12109C141.602 7.76953 141.129 7.59375 140.48 7.59375C139.91 7.59375 139.461 7.73047 139.133 8.00391C138.812 8.27734 138.652 8.65234 138.652 9.12891H135.266C135.266 8.39453 135.492 7.71484 135.945 7.08984C136.398 6.46484 137.039 5.97656 137.867 5.625C138.695 5.26562 139.625 5.08594 140.656 5.08594C142.219 5.08594 143.457 5.48047 144.371 6.26953C145.293 7.05078 145.754 8.15234 145.754 9.57422V15.0703C145.762 16.2734 145.93 17.1836 146.258 17.8008V18H142.836ZM140.035 15.6445C140.535 15.6445 140.996 15.5352 141.418 15.3164C141.84 15.0898 142.152 14.7891 142.355 14.4141V12.2344H141.09C139.395 12.2344 138.492 12.8203 138.383 13.9922L138.371 14.1914C138.371 14.6133 138.52 14.9609 138.816 15.2344C139.113 15.5078 139.52 15.6445 140.035 15.6445ZM155.223 14.4961C155.223 14.082 155.016 13.7578 154.602 13.5234C154.195 13.2812 153.539 13.0664 152.633 12.8789C149.617 12.2461 148.109 10.9648 148.109 9.03516C148.109 7.91016 148.574 6.97266 149.504 6.22266C150.441 5.46484 151.664 5.08594 153.172 5.08594C154.781 5.08594 156.066 5.46484 157.027 6.22266C157.996 6.98047 158.48 7.96484 158.48 9.17578H155.094C155.094 8.69141 154.938 8.29297 154.625 7.98047C154.312 7.66016 153.824 7.5 153.16 7.5C152.59 7.5 152.148 7.62891 151.836 7.88672C151.523 8.14453 151.367 8.47266 151.367 8.87109C151.367 9.24609 151.543 9.55078 151.895 9.78516C152.254 10.0117 152.855 10.2109 153.699 10.3828C154.543 10.5469 155.254 10.7344 155.832 10.9453C157.621 11.6016 158.516 12.7383 158.516 14.3555C158.516 15.5117 158.02 16.4492 157.027 17.168C156.035 17.8789 154.754 18.2344 153.184 18.2344C152.121 18.2344 151.176 18.0469 150.348 17.6719C149.527 17.2891 148.883 16.7695 148.414 16.1133C147.945 15.4492 147.711 14.7344 147.711 13.9688H150.922C150.953 14.5703 151.176 15.0312 151.59 15.3516C152.004 15.6719 152.559 15.832 153.254 15.832C153.902 15.832 154.391 15.7109 154.719 15.4688C155.055 15.2188 155.223 14.8945 155.223 14.4961ZM167.574 14.4961C167.574 14.082 167.367 13.7578 166.953 13.5234C166.547 13.2812 165.891 13.0664 164.984 12.8789C161.969 12.2461 160.461 10.9648 160.461 9.03516C160.461 7.91016 160.926 6.97266 161.855 6.22266C162.793 5.46484 164.016 5.08594 165.523 5.08594C167.133 5.08594 168.418 5.46484 169.379 6.22266C170.348 6.98047 170.832 7.96484 170.832 9.17578H167.445C167.445 8.69141 167.289 8.29297 166.977 7.98047C166.664 7.66016 166.176 7.5 165.512 7.5C164.941 7.5 164.5 7.62891 164.188 7.88672C163.875 8.14453 163.719 8.47266 163.719 8.87109C163.719 9.24609 163.895 9.55078 164.246 9.78516C164.605 10.0117 165.207 10.2109 166.051 10.3828C166.895 10.5469 167.605 10.7344 168.184 10.9453C169.973 11.6016 170.867 12.7383 170.867 14.3555C170.867 15.5117 170.371 16.4492 169.379 17.168C168.387 17.8789 167.105 18.2344 165.535 18.2344C164.473 18.2344 163.527 18.0469 162.699 17.6719C161.879 17.2891 161.234 16.7695 160.766 16.1133C160.297 15.4492 160.062 14.7344 160.062 13.9688H163.273C163.305 14.5703 163.527 15.0312 163.941 15.3516C164.355 15.6719 164.91 15.832 165.605 15.832C166.254 15.832 166.742 15.7109 167.07 15.4688C167.406 15.2188 167.574 14.8945 167.574 14.4961Z" fill="#FFFDFD"/>
</svg>
