<svg width="301" height="56" viewBox="0 0 301 56" fill="none" xmlns="http://www.w3.org/2000/svg">
<path d="M34.432 4.816V10.144H20.752V55H14.2V10.144H0.448V4.816H34.432ZM77.4891 15.544V55H70.9371V49.168C69.6891 51.184 67.9371 52.768 65.6811 53.92C63.4731 55.024 61.0251 55.576 58.3371 55.576C55.2651 55.576 52.5051 54.952 50.0571 53.704C47.6091 52.408 45.6651 50.488 44.2251 47.944C42.8331 45.4 42.1371 42.304 42.1371 38.656V15.544H48.6171V37.792C48.6171 41.68 49.6011 44.68 51.5691 46.792C53.5371 48.856 56.2251 49.888 59.6331 49.888C63.1371 49.888 65.8971 48.808 67.9131 46.648C69.9291 44.488 70.9371 41.344 70.9371 37.216V15.544H77.4891ZM96.5438 20.944V44.2C96.5438 46.12 96.9518 47.488 97.7678 48.304C98.5838 49.072 99.9998 49.456 102.016 49.456H106.84V55H100.936C97.2878 55 94.5518 54.16 92.7278 52.48C90.9038 50.8 89.9918 48.04 89.9918 44.2V20.944H84.8798V15.544H89.9918V5.608H96.5438V15.544H106.84V20.944H96.5438ZM131.986 55.648C128.29 55.648 124.93 54.808 121.906 53.128C118.93 51.448 116.578 49.072 114.85 46C113.17 42.88 112.33 39.28 112.33 35.2C112.33 31.168 113.194 27.616 114.922 24.544C116.698 21.424 119.098 19.048 122.122 17.416C125.146 15.736 128.53 14.896 132.274 14.896C136.018 14.896 139.402 15.736 142.426 17.416C145.45 19.048 147.826 21.4 149.554 24.472C151.33 27.544 152.218 31.12 152.218 35.2C152.218 39.28 151.306 42.88 149.482 46C147.706 49.072 145.282 51.448 142.21 53.128C139.138 54.808 135.73 55.648 131.986 55.648ZM131.986 49.888C134.338 49.888 136.546 49.336 138.61 48.232C140.674 47.128 142.33 45.472 143.578 43.264C144.874 41.056 145.522 38.368 145.522 35.2C145.522 32.032 144.898 29.344 143.65 27.136C142.402 24.928 140.77 23.296 138.754 22.24C136.738 21.136 134.554 20.584 132.202 20.584C129.802 20.584 127.594 21.136 125.578 22.24C123.61 23.296 122.026 24.928 120.826 27.136C119.626 29.344 119.026 32.032 119.026 35.2C119.026 38.416 119.602 41.128 120.754 43.336C121.954 45.544 123.538 47.2 125.506 48.304C127.474 49.36 129.634 49.888 131.986 49.888ZM167.385 21.952C168.537 19.696 170.169 17.944 172.281 16.696C174.441 15.448 177.057 14.824 180.129 14.824V21.592H178.401C171.057 21.592 167.385 25.576 167.385 33.544V55H160.833V15.544H167.385V21.952ZM191.076 9.136C189.828 9.136 188.772 8.704 187.908 7.84C187.044 6.976 186.612 5.92 186.612 4.672C186.612 3.424 187.044 2.368 187.908 1.504C188.772 0.639997 189.828 0.207997 191.076 0.207997C192.276 0.207997 193.284 0.639997 194.1 1.504C194.964 2.368 195.396 3.424 195.396 4.672C195.396 5.92 194.964 6.976 194.1 7.84C193.284 8.704 192.276 9.136 191.076 9.136ZM194.244 15.544V55H187.692V15.544H194.244ZM202.963 35.128C202.963 31.096 203.779 27.568 205.411 24.544C207.043 21.472 209.275 19.096 212.107 17.416C214.987 15.736 218.179 14.896 221.683 14.896C225.139 14.896 228.139 15.64 230.683 17.128C233.227 18.616 235.123 20.488 236.371 22.744V15.544H242.995V55H236.371V47.656C235.075 49.96 233.131 51.88 230.539 53.416C227.995 54.904 225.019 55.648 221.611 55.648C218.107 55.648 214.939 54.784 212.107 53.056C209.275 51.328 207.043 48.904 205.411 45.784C203.779 42.664 202.963 39.112 202.963 35.128ZM236.371 35.2C236.371 32.224 235.771 29.632 234.571 27.424C233.371 25.216 231.739 23.536 229.675 22.384C227.659 21.184 225.427 20.584 222.979 20.584C220.531 20.584 218.299 21.16 216.283 22.312C214.267 23.464 212.659 25.144 211.459 27.352C210.259 29.56 209.659 32.152 209.659 35.128C209.659 38.152 210.259 40.792 211.459 43.048C212.659 45.256 214.267 46.96 216.283 48.16C218.299 49.312 220.531 49.888 222.979 49.888C225.427 49.888 227.659 49.312 229.675 48.16C231.739 46.96 233.371 45.256 234.571 43.048C235.771 40.792 236.371 38.176 236.371 35.2ZM260.619 1.72V55H254.067V1.72H260.619ZM285.754 55.648C282.73 55.648 280.018 55.144 277.618 54.136C275.218 53.08 273.322 51.64 271.93 49.816C270.538 47.944 269.77 45.808 269.626 43.408H276.394C276.586 45.376 277.498 46.984 279.13 48.232C280.81 49.48 282.994 50.104 285.682 50.104C288.178 50.104 290.146 49.552 291.586 48.448C293.026 47.344 293.746 45.952 293.746 44.272C293.746 42.544 292.978 41.272 291.442 40.456C289.906 39.592 287.53 38.752 284.314 37.936C281.386 37.168 278.986 36.4 277.114 35.632C275.29 34.816 273.706 33.64 272.362 32.104C271.066 30.52 270.418 28.456 270.418 25.912C270.418 23.896 271.018 22.048 272.218 20.368C273.418 18.688 275.122 17.368 277.33 16.408C279.538 15.4 282.058 14.896 284.89 14.896C289.258 14.896 292.786 16 295.474 18.208C298.162 20.416 299.602 23.44 299.794 27.28H293.242C293.098 25.216 292.258 23.56 290.722 22.312C289.234 21.064 287.218 20.44 284.674 20.44C282.322 20.44 280.45 20.944 279.058 21.952C277.666 22.96 276.97 24.28 276.97 25.912C276.97 27.208 277.378 28.288 278.194 29.152C279.058 29.968 280.114 30.64 281.362 31.168C282.658 31.648 284.434 32.2 286.69 32.824C289.522 33.592 291.826 34.36 293.602 35.128C295.378 35.848 296.89 36.952 298.138 38.44C299.434 39.928 300.106 41.872 300.154 44.272C300.154 46.432 299.554 48.376 298.354 50.104C297.154 51.832 295.45 53.2 293.242 54.208C291.082 55.168 288.586 55.648 285.754 55.648Z" fill="black"/>
</svg>
